<svg xmlns="http://www.w3.org/2000/svg" viewBox="0 0 351.3 352.5"><defs><style>.cls-1,.cls-2,.cls-3,.cls-4,.cls-5{fill:#365e6c;}.cls-1{opacity:0.6;}.cls-2{opacity:0.4;}.cls-3{opacity:0.8;}.cls-5{opacity:0.2;}.cls-6{fill:#ec971a;}.cls-7,.cls-8{fill:none;stroke:#ec971a;stroke-width:2px;}.cls-7{stroke-miterlimit:10;}.cls-8{stroke-linecap:round;stroke-linejoin:round;}</style></defs><g id="Layer_2" data-name="Layer 2"><g id="Mini"><polygon class="cls-1" points="116.7 31 106.9 31 102 39.5 106.9 48 116.7 48 121.6 39.5 116.7 31"/><polygon class="cls-2" points="116.7 54 106.9 54 102 62.5 106.9 71 116.7 71 121.6 62.5 116.7 54"/><polygon class="cls-1" points="156.7 31 146.9 31 142 39.5 146.9 48 156.7 48 161.6 39.5 156.7 31"/><polygon class="cls-2" points="156.7 54 146.9 54 142 62.5 146.9 71 156.7 71 161.6 62.5 156.7 54"/><polygon class="cls-3" points="136.7 20 126.9 20 122 28.5 126.9 37 136.7 37 141.6 28.5 136.7 20"/><polygon class="cls-4" points="136.7 43 126.9 43 122 51.5 126.9 60 136.7 60 141.6 51.5 136.7 43"/><polygon class="cls-5" points="136.7 65 126.9 65 122 73.5 126.9 82 136.7 82 141.6 73.5 136.7 65"/><polygon class="cls-2" points="282.4 11 272.5 11 267.6 19.5 272.5 28 282.4 28 287.3 19.5 282.4 11"/><polygon class="cls-1" points="282.4 33 272.5 33 267.6 41.5 272.5 50 282.4 50 287.3 41.5 282.4 33"/><polygon class="cls-2" points="322.4 11 312.5 11 307.6 19.5 312.5 28 322.4 28 327.3 19.5 322.4 11"/><polygon class="cls-1" points="322.4 33 312.5 33 307.6 41.5 312.5 50 322.4 50 327.3 41.5 322.4 33"/><polygon class="cls-5" points="302.4 0 292.5 0 287.6 8.5 292.5 17 302.4 17 307.3 8.5 302.4 0"/><polygon class="cls-4" points="302.4 22 292.5 22 287.6 30.5 292.5 39 302.4 39 307.3 30.5 302.4 22"/><polygon class="cls-3" points="302.4 45 292.5 45 287.6 53.5 292.5 62 302.4 62 307.3 53.5 302.4 45"/><polygon class="cls-2" points="14.7 177 4.9 177 0 185.5 4.9 194 14.7 194 19.6 185.5 14.7 177"/><polygon class="cls-5" points="14.7 200 4.9 200 0 208.5 4.9 217 14.7 217 19.6 208.5 14.7 200"/><polygon class="cls-1" points="34.7 166 24.9 166 20 174.5 24.9 183 34.7 183 39.6 174.5 34.7 166"/><polygon class="cls-4" points="34.7 189 24.9 189 20 197.5 24.9 206 34.7 206 39.6 197.5 34.7 189"/><polygon class="cls-2" points="34.7 211 24.9 211 20 219.5 24.9 228 34.7 228 39.6 219.5 34.7 211"/><polygon class="cls-3" points="54.7 178 44.9 178 40 186.5 44.9 195 54.7 195 59.6 186.5 54.7 178"/><polygon class="cls-1" points="54.7 200 44.9 200 40 208.5 44.9 217 54.7 217 59.6 208.5 54.7 200"/><polygon class="cls-2" points="343.9 155 334.1 155 329.2 163.5 334.1 172 343.9 172 348.8 163.5 343.9 155"/><polygon class="cls-5" points="343.9 177 334.1 177 329.2 185.5 334.1 194 343.9 194 348.8 185.5 343.9 177"/><polygon class="cls-1" points="323.9 144 314.1 144 309.2 152.5 314.1 161 323.9 161 328.8 152.5 323.9 144"/><polygon class="cls-4" points="323.9 166 314.1 166 309.2 174.5 314.1 183 323.9 183 328.8 174.5 323.9 166"/><polygon class="cls-2" points="323.9 189 314.1 189 309.2 197.5 314.1 206 323.9 206 328.8 197.5 323.9 189"/><polygon class="cls-3" points="303.9 155 294.1 155 289.2 163.5 294.1 172 303.9 172 308.8 163.5 303.9 155"/><polygon class="cls-1" points="303.9 178 294.1 178 289.2 186.5 294.1 195 303.9 195 308.8 186.5 303.9 178"/><polygon class="cls-2" points="240.5 245 230.7 245 225.8 253.5 230.7 262 240.5 262 245.4 253.5 240.5 245"/><polygon class="cls-5" points="240.5 268 230.7 268 225.8 276.5 230.7 285 240.5 285 245.4 276.5 240.5 268"/><polygon class="cls-1" points="200.5 268 190.7 268 185.8 276.5 190.7 285 200.5 285 205.4 276.5 200.5 268"/><polygon class="cls-4" points="220.5 257 210.7 257 205.8 265.5 210.7 274 220.5 274 225.4 265.5 220.5 257"/><polygon class="cls-2" points="220.5 279 210.7 279 205.8 287.5 210.7 296 220.5 296 225.4 287.5 220.5 279"/><polygon class="cls-3" points="200.5 245 190.7 245 185.8 253.5 190.7 262 200.5 262 205.4 253.5 200.5 245"/><polygon class="cls-1" points="220.5 234 210.7 234 205.8 242.5 210.7 251 220.5 251 225.4 242.5 220.5 234"/><polygon class="cls-4" points="99.5 312 89.7 312 84.8 320.5 89.7 329 99.5 329 104.4 320.5 99.5 312"/><polygon class="cls-2" points="99.5 334 89.7 334 84.8 342.5 89.7 351 99.5 351 104.4 342.5 99.5 334"/><polygon class="cls-2" points="119.5 301 109.7 301 104.8 309.5 109.7 318 119.5 318 124.4 309.5 119.5 301"/><polygon class="cls-5" points="119.5 323 109.7 323 104.8 331.5 109.7 340 119.5 340 124.4 331.5 119.5 323"/><polygon class="cls-3" points="79.5 301 69.7 301 64.8 309.5 69.7 318 79.5 318 84.4 309.5 79.5 301"/><polygon class="cls-1" points="79.5 323 69.7 323 64.8 331.5 69.7 340 79.5 340 84.4 331.5 79.5 323"/><polygon class="cls-1" points="99.5 290 89.7 290 84.8 298.5 89.7 307 99.5 307 104.4 298.5 99.5 290"/><polygon class="cls-2" points="326.4 291.5 316.5 291.5 311.6 300 316.5 308.5 326.4 308.5 331.3 300 326.4 291.5"/><polygon class="cls-3" points="346.4 324.5 336.5 324.5 331.6 333 336.5 341.5 346.4 341.5 351.3 333 346.4 324.5"/><polygon class="cls-4" points="326.4 313.5 316.5 313.5 311.6 322 316.5 330.5 326.4 330.5 331.3 322 326.4 313.5"/><polygon class="cls-1" points="326.4 335.5 316.5 335.5 311.6 344 316.5 352.5 326.4 352.5 331.3 344 326.4 335.5"/><polygon class="cls-5" points="306.4 302.5 296.5 302.5 291.6 311 296.5 319.5 306.4 319.5 311.3 311 306.4 302.5"/><polygon class="cls-1" points="346.4 302.5 336.5 302.5 331.6 311 336.5 319.5 346.4 319.5 351.3 311 346.4 302.5"/><polygon class="cls-2" points="306.4 324.5 296.5 324.5 291.6 333 296.5 341.5 306.4 341.5 311.3 333 306.4 324.5"/><path class="cls-6" d="M211.5,154H199.3v46.7A3.4,3.4,0,0,1,196,204a38.5,38.5,0,0,1-15.6-3.1,41.3,41.3,0,0,1-12.7-8.6,40.2,40.2,0,0,1-8.6-12.7A39.1,39.1,0,0,1,156,164a38.3,38.3,0,0,1,3.1-15.5,40.2,40.2,0,0,1,8.6-12.7,39.6,39.6,0,0,1,12.7-8.6,39.4,39.4,0,0,1,31.1,0,39.6,39.6,0,0,1,12.7,8.6,40.2,40.2,0,0,1,8.6,12.7A38.4,38.4,0,0,1,236,164a3.4,3.4,0,0,1-3.4,3.4,3.4,3.4,0,0,1-3.3-3.4,27.4,27.4,0,0,0-.4-5,22.7,22.7,0,0,0-1.2-5h-9.5a28.9,28.9,0,0,1,.8,5,41.9,41.9,0,0,1,.3,5,3.4,3.4,0,0,1-3.3,3.4,3.3,3.3,0,0,1-2.4-1,3.3,3.3,0,0,1-1-2.4,41.9,41.9,0,0,0-.3-5A43.3,43.3,0,0,0,211.5,154ZM163,169.1a23.3,23.3,0,0,0,1.2,4.9h9.4a42.9,42.9,0,0,1-.7-5,40.7,40.7,0,0,1-.3-5,41.9,41.9,0,0,1,.3-5,28.9,28.9,0,0,1,.8-5h-9.5a22.7,22.7,0,0,0-1.2,5,27.4,27.4,0,0,0-.4,5A27.8,27.8,0,0,0,163,169.1ZM173.8,139a26.8,26.8,0,0,0-6.7,8.4h8.3c.9-1.7,1.9-3.9,3.1-6.6a34.1,34.1,0,0,1,4.2-7.3A32.4,32.4,0,0,0,173.8,139Zm-6.7,41.7a27.9,27.9,0,0,0,6.7,8.4,35,35,0,0,0,8.9,5.5,34.1,34.1,0,0,1-4.2-7.3c-1.2-2.7-2.3-4.9-3.1-6.6Zm25.5-6.7V154H180.5a43.7,43.7,0,0,0-.9,5,41.9,41.9,0,0,0-.3,5,40.7,40.7,0,0,0,.3,5,43.3,43.3,0,0,0,.8,5Zm-5.8-35.1a29.3,29.3,0,0,0-4.2,8.5h10V132.2A59.1,59.1,0,0,0,186.8,138.9Zm5.8,57V180.7h-10a29.3,29.3,0,0,0,4.2,8.5A69.3,69.3,0,0,0,192.6,195.9Zm6.7-48.5h10a29.3,29.3,0,0,0-4.2-8.5,59.1,59.1,0,0,0-5.8-6.7Zm31.4,33.7a10.1,10.1,0,0,1,.7,1.5l.6,1.4h4v6.7h-3.7a6.6,6.6,0,0,1-.6,2,11.4,11.4,0,0,1-1,1.9l1,.9a3.6,3.6,0,0,1,.9,2.4,3.2,3.2,0,0,1-.9,2.3,3.8,3.8,0,0,1-1.1.8l-1.3.2-1.2-.2a2.3,2.3,0,0,1-1.1-.8l-1-.9-1.6.8a6.4,6.4,0,0,1-1.8.6V204H216v-3.3a4.8,4.8,0,0,1-1.8-.6l-1.6-.8-.9.9a3.8,3.8,0,0,1-1.1.8l-1.3.2-1.2-.2a2.3,2.3,0,0,1-1.1-.8,2.9,2.9,0,0,1-1-2.3,3.3,3.3,0,0,1,1-2.4l.8-.9a11.1,11.1,0,0,1-.9-1.9,6.6,6.6,0,0,1-.6-2h-3.7V184h4a7.8,7.8,0,0,1,.5-1.4l.7-1.5-.8-.9a2.9,2.9,0,0,1-1-2.3,3.4,3.4,0,0,1,3.3-3.4,3.7,3.7,0,0,1,2.4,1l.9.9,1.6-.8,1.8-.6v-4.3h6.6V175l1.8.6,1.6.8,1-.9a3.3,3.3,0,0,1,2.3-1,3.7,3.7,0,0,1,2.4,1,3.6,3.6,0,0,1,.9,2.4,3.2,3.2,0,0,1-.9,2.3Zm-5.9-33.7a26.8,26.8,0,0,0-6.7-8.4,32.4,32.4,0,0,0-8.9-5.5,34.1,34.1,0,0,1,4.2,7.3c1.2,2.7,2.2,4.9,3.1,6.6Zm-10.3,45.2a6.5,6.5,0,0,0,4.8,1.9,6.4,6.4,0,0,0,4.7-1.9,6.6,6.6,0,0,0,0-9.5,6.4,6.4,0,0,0-4.7-1.9,6.5,6.5,0,0,0-4.8,1.9,6.4,6.4,0,0,0-1.9,4.7A6.5,6.5,0,0,0,214.5,192.6Z"/><line class="cls-7" x1="248.2" y1="175" x2="279.2" y2="175"/><line class="cls-7" x1="174.6" y1="51" x2="205.6" y2="51"/><line class="cls-7" x1="69.6" y1="198" x2="93.6" y2="198"/><line class="cls-7" x1="215.6" y1="224" x2="215.6" y2="214"/><path class="cls-7" d="M215.6,306v14a2,2,0,0,0,2,2h61"/><path class="cls-7" d="M143.6,169h-47a2,2,0,0,0-2,2V280"/><path class="cls-7" d="M255.6,31h-47a2,2,0,0,0-2,2v81"/><polyline class="cls-8" points="179.7 46.4 172.6 51 179.7 55.6"/><polyline class="cls-8" points="249.9 35.6 257 31 249.9 26.4"/><polyline class="cls-8" points="138 173.6 145 169 138 164.4"/><polyline class="cls-8" points="273.8 326.6 280.8 322 273.8 317.4"/><polyline class="cls-8" points="253.7 170.4 246.6 175 253.7 179.6"/></g></g></svg>